<svg width="20" height="20" viewBox="0 0 20 20" fill="none" xmlns="http://www.w3.org/2000/svg">
<path d="M17.4998 8.74999H16.6665V7.91666C16.6665 7.69564 16.5787 7.48368 16.4224 7.3274C16.2661 7.17112 16.0542 7.08332 15.8332 7.08332C15.6122 7.08332 15.4002 7.17112 15.2439 7.3274C15.0876 7.48368 14.9998 7.69564 14.9998 7.91666V8.74999H14.1665C13.9455 8.74999 13.7335 8.83779 13.5772 8.99407C13.421 9.15035 13.3332 9.36231 13.3332 9.58332C13.3332 9.80434 13.421 10.0163 13.5772 10.1726C13.7335 10.3289 13.9455 10.4167 14.1665 10.4167H14.9998V11.25C14.9998 11.471 15.0876 11.683 15.2439 11.8392C15.4002 11.9955 15.6122 12.0833 15.8332 12.0833C16.0542 12.0833 16.2661 11.9955 16.4224 11.8392C16.5787 11.683 16.6665 11.471 16.6665 11.25V10.4167H17.4998C17.7209 10.4167 17.9328 10.3289 18.0891 10.1726C18.2454 10.0163 18.3332 9.80434 18.3332 9.58332C18.3332 9.36231 18.2454 9.15035 18.0891 8.99407C17.9328 8.83779 17.7209 8.74999 17.4998 8.74999ZM11.0832 10.1833C11.5278 9.79843 11.8845 9.32239 12.1289 8.78751C12.3733 8.25262 12.4998 7.67141 12.4998 7.08332C12.4998 5.97825 12.0609 4.91845 11.2794 4.13704C10.498 3.35564 9.43824 2.91666 8.33317 2.91666C7.2281 2.91666 6.16829 3.35564 5.38689 4.13704C4.60549 4.91845 4.1665 5.97825 4.1665 7.08332C4.1665 7.67141 4.29301 8.25262 4.53744 8.78751C4.78188 9.32239 5.13852 9.79843 5.58317 10.1833C4.41662 10.7116 3.42689 11.5646 2.73232 12.6404C2.03775 13.7163 1.66773 14.9694 1.6665 16.25C1.6665 16.471 1.7543 16.683 1.91058 16.8392C2.06686 16.9955 2.27882 17.0833 2.49984 17.0833C2.72085 17.0833 2.93281 16.9955 3.08909 16.8392C3.24537 16.683 3.33317 16.471 3.33317 16.25C3.33317 14.9239 3.85996 13.6521 4.79764 12.7145C5.73532 11.7768 7.00709 11.25 8.33317 11.25C9.65925 11.25 10.931 11.7768 11.8687 12.7145C12.8064 13.6521 13.3332 14.9239 13.3332 16.25C13.3332 16.471 13.421 16.683 13.5772 16.8392C13.7335 16.9955 13.9455 17.0833 14.1665 17.0833C14.3875 17.0833 14.5995 16.9955 14.7558 16.8392C14.912 16.683 14.9998 16.471 14.9998 16.25C14.9986 14.9694 14.6286 13.7163 13.934 12.6404C13.2395 11.5646 12.2497 10.7116 11.0832 10.1833ZM8.33317 9.58332C7.83872 9.58332 7.35537 9.4367 6.94425 9.162C6.53312 8.88729 6.21269 8.49685 6.02347 8.04003C5.83425 7.58322 5.78474 7.08055 5.88121 6.5956C5.97767 6.11065 6.21577 5.66519 6.5654 5.31556C6.91504 4.96593 7.36049 4.72782 7.84545 4.63136C8.3304 4.5349 8.83306 4.58441 9.28988 4.77362C9.74669 4.96284 10.1371 5.28327 10.4118 5.6944C10.6865 6.10552 10.8332 6.58887 10.8332 7.08332C10.8332 7.74636 10.5698 8.38225 10.1009 8.85109C9.6321 9.31993 8.99621 9.58332 8.33317 9.58332Z" fill="#7B91F7"/>
</svg>
