<svg width="16" height="10" viewBox="0 0 16 10" fill="none" xmlns="http://www.w3.org/2000/svg">
<path d="M15.44 0.465C15.3638 0.281738 15.2182 0.136106 15.035 0.0599999C14.9448 0.0215692 14.848 0.00118499 14.75 0H11C10.801 0 10.6103 0.0790178 10.4696 0.21967C10.329 0.360322 10.25 0.551088 10.25 0.75C10.25 0.948912 10.329 1.13968 10.4696 1.28033C10.6103 1.42098 10.801 1.5 11 1.5H12.9425L8.74995 5.6925L6.28245 3.2175C6.21273 3.1472 6.12978 3.09141 6.03839 3.05333C5.94699 3.01526 5.84896 2.99565 5.74995 2.99565C5.65095 2.99565 5.55292 3.01526 5.46152 3.05333C5.37013 3.09141 5.28718 3.1472 5.21745 3.2175L0.717454 7.7175C0.647158 7.78722 0.591362 7.87017 0.553286 7.96157C0.515209 8.05296 0.495605 8.15099 0.495605 8.25C0.495605 8.34901 0.515209 8.44704 0.553286 8.53843C0.591362 8.62983 0.647158 8.71278 0.717454 8.7825C0.787176 8.8528 0.870127 8.90859 0.961522 8.94667C1.05292 8.98475 1.15095 9.00435 1.24995 9.00435C1.34896 9.00435 1.44699 8.98475 1.53839 8.94667C1.62978 8.90859 1.71273 8.8528 1.78245 8.7825L5.74995 4.8075L8.21745 7.2825C8.28718 7.3528 8.37013 7.40859 8.46152 7.44667C8.55292 7.48475 8.65095 7.50435 8.74995 7.50435C8.84896 7.50435 8.94699 7.48475 9.03839 7.44667C9.12978 7.40859 9.21273 7.3528 9.28245 7.2825L14 2.5575V4.5C14 4.69891 14.079 4.88968 14.2196 5.03033C14.3603 5.17098 14.551 5.25 14.75 5.25C14.9489 5.25 15.1396 5.17098 15.2803 5.03033C15.4209 4.88968 15.5 4.69891 15.5 4.5V0.75C15.4988 0.651992 15.4784 0.555167 15.44 0.465Z" fill="#818187"/>
</svg>
