<svg width="17" height="11" viewBox="0 0 17 11" fill="none" xmlns="http://www.w3.org/2000/svg">
<path d="M16.7667 0.516667C16.6821 0.313042 16.5203 0.151229 16.3167 0.0666666C16.2165 0.0239658 16.1089 0.00131666 16 0H11.8334C11.6124 0 11.4004 0.0877975 11.2441 0.244078C11.0878 0.400358 11 0.61232 11 0.833333C11 1.05435 11.0878 1.26631 11.2441 1.42259C11.4004 1.57887 11.6124 1.66667 11.8334 1.66667H13.9917L9.33336 6.325L6.5917 3.575C6.51423 3.49689 6.42206 3.4349 6.32051 3.39259C6.21896 3.35028 6.11004 3.3285 6.00003 3.3285C5.89002 3.3285 5.7811 3.35028 5.67955 3.39259C5.578 3.4349 5.48583 3.49689 5.40836 3.575L0.408364 8.575C0.330257 8.65247 0.268262 8.74464 0.225954 8.84619C0.183647 8.94774 0.161865 9.05666 0.161865 9.16667C0.161865 9.27668 0.183647 9.3856 0.225954 9.48715C0.268262 9.5887 0.330257 9.68086 0.408364 9.75833C0.485833 9.83644 0.578001 9.89844 0.67955 9.94074C0.781099 9.98305 0.890021 10.0048 1.00003 10.0048C1.11004 10.0048 1.21896 9.98305 1.32051 9.94074C1.42206 9.89844 1.51423 9.83644 1.5917 9.75833L6.00003 5.34167L8.7417 8.09167C8.81917 8.16977 8.91133 8.23177 9.01288 8.27408C9.11443 8.31638 9.22335 8.33817 9.33336 8.33817C9.44337 8.33817 9.5523 8.31638 9.65384 8.27408C9.75539 8.23177 9.84756 8.16977 9.92503 8.09167L15.1667 2.84167V5C15.1667 5.22101 15.2545 5.43298 15.4108 5.58926C15.5671 5.74554 15.779 5.83333 16 5.83333C16.221 5.83333 16.433 5.74554 16.5893 5.58926C16.7456 5.43298 16.8334 5.22101 16.8334 5V0.833333C16.832 0.724436 16.8094 0.616852 16.7667 0.516667Z" fill="#35DB95"/>
</svg>
