<svg width="20" height="20" viewBox="0 0 20 20" fill="none" xmlns="http://www.w3.org/2000/svg">
<path d="M12.5001 1.66668C11.1359 1.66778 9.81528 2.14694 8.76781 3.02085C7.72034 3.89476 7.01227 5.10814 6.76672 6.45001C6.04875 6.83736 5.43646 7.39451 4.98326 8.07284C4.53007 8.75118 4.24974 9.53011 4.16672 10.3417C3.54651 10.6145 3.00219 11.0344 2.58093 11.5651C2.15967 12.0958 1.87418 12.7212 1.74922 13.3872C1.62425 14.0531 1.66357 14.7395 1.86377 15.3868C2.06397 16.0341 2.41901 16.6228 2.89812 17.1019C3.37723 17.5811 3.96596 17.9361 4.61327 18.1363C5.26058 18.3365 5.94695 18.3758 6.61288 18.2509C7.27882 18.1259 7.90424 17.8404 8.43493 17.4191C8.96562 16.9979 9.38557 16.4536 9.65839 15.8333C10.4676 15.7529 11.2449 15.4764 11.923 15.0277C12.6012 14.579 13.1597 13.9717 13.5501 13.2583C15.0092 13.0243 16.325 12.2452 17.2319 11.0784C18.1387 9.91161 18.569 8.44413 18.4357 6.97241C18.3023 5.50068 17.6154 4.1344 16.5137 3.14956C15.4119 2.16473 13.9775 1.63475 12.5001 1.66668ZM8.33339 14.525C8.33339 14.6083 8.33339 14.6917 8.27506 14.7833C8.16742 15.2123 7.94793 15.6049 7.639 15.9214C7.33006 16.2378 6.94272 16.4666 6.5165 16.5844C6.09027 16.7023 5.64042 16.7049 5.21282 16.5922C4.78522 16.4794 4.39517 16.2553 4.08248 15.9426C3.76979 15.6299 3.54563 15.2399 3.43288 14.8123C3.32012 14.3847 3.32281 13.9348 3.44066 13.5086C3.55851 13.0823 3.78731 12.695 4.10371 12.3861C4.42012 12.0771 4.81281 11.8577 5.24172 11.75L5.47506 11.6667C5.86637 11.5936 6.26961 11.6169 6.64988 11.7347C7.03015 11.8524 7.37599 12.0611 7.65749 12.3426C7.93898 12.6241 8.14764 12.9699 8.26541 13.3502C8.38318 13.7305 8.40651 14.1337 8.33339 14.525ZM12.5001 11.4667C12.4891 11.5202 12.4752 11.573 12.4584 11.625C12.4226 11.7784 12.3752 11.9288 12.3167 12.075C12.1249 12.5615 11.8212 12.996 11.4304 13.3435C11.0395 13.6909 10.5724 13.9415 10.0667 14.075C10.0667 13.925 10.0667 13.7833 10.0167 13.6333C9.96672 13.4833 10.0167 13.4083 10.0167 13.3C10.0167 13.1917 9.91672 12.9833 9.86672 12.825C9.81672 12.6667 9.80839 12.625 9.76672 12.525C9.69489 12.3662 9.61132 12.213 9.51672 12.0667C9.51672 11.9917 9.44172 11.9083 9.39172 11.8333C9.2435 11.6161 9.07617 11.4125 8.89172 11.225L8.72506 11.0833C8.58537 10.9549 8.43786 10.8352 8.28339 10.725C8.1926 10.6659 8.09794 10.613 8.00006 10.5667C7.86668 10.4819 7.72744 10.4067 7.58339 10.3417C7.47576 10.2956 7.36419 10.2594 7.25006 10.2333C7.10976 10.1764 6.96476 10.1318 6.81672 10.1C6.70006 10.1 6.57506 10.1 6.45006 10.05L5.94172 10C6.07438 9.49523 6.32371 9.02866 6.66964 8.63786C7.01557 8.24705 7.44844 7.94294 7.93339 7.75001C8.07632 7.69032 8.22408 7.64293 8.37506 7.60834L8.54172 7.56668C8.74728 7.52345 8.95668 7.50111 9.16672 7.50001C10.0508 7.50001 10.8986 7.8512 11.5237 8.47632C12.1489 9.10144 12.5001 9.94929 12.5001 10.8333C12.4989 11.0461 12.4766 11.2583 12.4334 11.4667H12.5001ZM14.1667 11.3333C14.1667 11.1667 14.1667 11 14.1667 10.8333C14.1667 9.50726 13.6399 8.23549 12.7023 7.29781C11.7646 6.36013 10.4928 5.83334 9.16672 5.83334C9.00006 5.83334 8.83339 5.83334 8.66672 5.83334C8.94141 5.21547 9.36234 4.67373 9.89318 4.25488C10.424 3.83604 11.0488 3.55269 11.7137 3.42928C12.3785 3.30587 13.0633 3.34611 13.7091 3.54654C14.3549 3.74697 14.9422 4.10155 15.4204 4.57968C15.8985 5.05782 16.2531 5.64513 16.4535 6.29093C16.654 6.93672 16.6942 7.62159 16.5708 8.28642C16.4474 8.95124 16.164 9.57604 15.7452 10.1069C15.3263 10.6377 14.7846 11.0587 14.1667 11.3333Z" fill="#00D5AA"/>
</svg>
