<svg width="20" height="19" viewBox="0 0 20 19" fill="none" xmlns="http://www.w3.org/2000/svg">
<path d="M16.1766 13.4428C16.0506 13.5693 15.954 13.7221 15.8938 13.8902C15.8335 14.0583 15.8111 14.2377 15.8281 14.4154C15.9135 15.2382 16.0752 16.0512 16.3114 16.844C14.6175 16.4518 13.5829 15.9976 13.113 15.7596C12.8464 15.6246 12.5395 15.5927 12.2508 15.6698C11.4234 15.8904 10.5705 16.0014 9.71418 16.0001C4.8619 16.0001 1.21418 12.5916 1.21418 8.71436C1.21418 4.83836 4.8619 1.42864 9.71418 1.42864C14.5665 1.42864 18.2142 4.83836 18.2142 8.71436C18.2142 10.4969 17.465 12.1508 16.1766 13.4428ZM16.7753 18.1846C17.063 18.2416 17.3516 18.2938 17.641 18.3412C17.8839 18.3801 18.0685 18.1275 17.9725 17.9016C17.8647 17.6474 17.7659 17.3894 17.6763 17.1281L17.6726 17.116C17.3715 16.2417 17.1262 15.2363 17.0363 14.3001C18.5263 12.8065 19.4285 10.8515 19.4285 8.71436C19.4285 4.01993 15.0789 0.214355 9.71418 0.214355C4.34947 0.214355 -0.000104904 4.01993 -0.000104904 8.71436C-0.000104904 13.4088 4.34947 17.2144 9.71418 17.2144C10.6763 17.2157 11.6345 17.0907 12.5641 16.8428C13.1955 17.1621 14.5543 17.7438 16.7753 18.1846Z" fill="white"/>
</svg>
