<svg width="76" height="50" viewBox="0 0 76 50" fill="none" xmlns="http://www.w3.org/2000/svg">
<path d="M55.1 0.600037C58.2469 0.600037 60.8 3.15197 60.8 6.30004C60.8 8.09316 59.9569 9.77941 58.52 10.86L56.8694 12.095C48.9606 12.855 42.3344 18.0325 39.4963 25.1338L32.68 30.24C31.3263 31.2494 29.4738 31.2494 28.12 30.24L2.28 10.86C0.844669 9.77941 0 8.09316 0 6.30004C0 3.15197 2.55194 0.600037 5.7 0.600037H55.1ZM34.96 33.28L38.095 30.9288C38.0356 31.5819 38 32.235 38 32.9C38 37.9469 39.7931 42.59 42.7738 46.2H7.6C3.40219 46.2 0 42.7919 0 38.6V13.9L25.84 33.28C28.5475 35.3107 32.2525 35.3107 34.96 33.28ZM76 32.9C76 42.3407 68.3406 50 58.9 50C49.4594 50 41.8 42.3407 41.8 32.9C41.8 23.4594 49.4594 15.8 58.9 15.8C68.3406 15.8 76 23.4594 76 32.9ZM64.2081 27.7582L57 34.9663L53.5919 31.5582C52.8556 30.81 51.6444 30.81 50.9081 31.5582C50.16 32.2944 50.16 33.5057 50.9081 34.2419L55.6581 38.9919C56.3944 39.74 57.6056 39.74 58.3419 38.9919L66.8919 30.4419C67.64 29.7057 67.64 28.4944 66.8919 27.7582C66.1556 27.01 64.9444 27.01 64.2081 27.7582Z" fill="#84919A"/>
</svg>
