<svg width="20" height="20" viewBox="0 0 20 20" fill="none" xmlns="http://www.w3.org/2000/svg">
<path d="M18.2665 5.51667C18.1819 5.31304 18.0201 5.15123 17.8165 5.06667C17.7163 5.02397 17.6087 5.00132 17.4998 5H13.3331C13.1121 5 12.9001 5.0878 12.7439 5.24408C12.5876 5.40036 12.4998 5.61232 12.4998 5.83333C12.4998 6.05435 12.5876 6.26631 12.7439 6.42259C12.9001 6.57887 13.1121 6.66667 13.3331 6.66667H15.4915L10.8331 11.325L8.09145 8.575C8.01398 8.49689 7.92182 8.4349 7.82027 8.39259C7.71872 8.35028 7.6098 8.3285 7.49979 8.3285C7.38978 8.3285 7.28086 8.35028 7.17931 8.39259C7.07776 8.4349 6.98559 8.49689 6.90812 8.575L1.90812 13.575C1.83001 13.6525 1.76802 13.7446 1.72571 13.8462C1.6834 13.9477 1.66162 14.0567 1.66162 14.1667C1.66162 14.2767 1.6834 14.3856 1.72571 14.4871C1.76802 14.5887 1.83001 14.6809 1.90812 14.7583C1.98559 14.8364 2.07776 14.8984 2.17931 14.9407C2.28086 14.9831 2.38978 15.0048 2.49979 15.0048C2.6098 15.0048 2.71872 14.9831 2.82027 14.9407C2.92182 14.8984 3.01398 14.8364 3.09145 14.7583L7.49979 10.3417L10.2415 13.0917C10.3189 13.1698 10.4111 13.2318 10.5126 13.2741C10.6142 13.3164 10.7231 13.3382 10.8331 13.3382C10.9431 13.3382 11.0521 13.3164 11.1536 13.2741C11.2551 13.2318 11.3473 13.1698 11.4248 13.0917L16.6665 7.84167V10C16.6665 10.221 16.7543 10.433 16.9105 10.5893C17.0668 10.7455 17.2788 10.8333 17.4998 10.8333C17.7208 10.8333 17.9328 10.7455 18.089 10.5893C18.2453 10.433 18.3331 10.221 18.3331 10V5.83333C18.3318 5.72444 18.3092 5.61685 18.2665 5.51667Z" fill="#FF8600"/>
</svg>
