<svg width="120" height="36" viewBox="0 0 120 36" fill="none" xmlns="http://www.w3.org/2000/svg">
<g clip-path="url(#clip0_35_1230)">
<path d="M18 36V25.8337C18 18.7463 23.8208 13 31 13V23.1663C31 30.2537 25.1792 36 18 36Z" fill="#FF8600"/>
<path d="M15 29V14.2899C15 6.39776 8.28432 0 0 0V14.7131C0 22.6052 6.71568 29 15 29Z" fill="#FFB800"/>
<path d="M27.9075 7.42358C28.5548 4.73908 26.9001 2.0515 24.2117 1.42071C21.5232 0.789919 18.8192 2.45478 18.1719 5.13928C17.5247 7.82378 19.1794 10.5114 21.8678 11.1422C24.5562 11.7729 27.2603 10.1081 27.9075 7.42358Z" fill="#3B3B45"/>
</g>
<path d="M41.275 27V9.5H48.875C50.0417 9.5 51.025 9.675 51.825 10.025C52.6417 10.3583 53.2583 10.85 53.675 11.5C54.0917 12.15 54.3 12.925 54.3 13.825C54.3 14.825 54.05 15.6583 53.55 16.325C53.05 16.9917 52.3333 17.45 51.4 17.7L51.375 17.2C52.1417 17.3833 52.8167 17.6833 53.4 18.1C53.9833 18.5167 54.4333 19.0333 54.75 19.65C55.0667 20.2667 55.225 20.9667 55.225 21.75C55.225 22.6167 55.0833 23.3833 54.8 24.05C54.5167 24.7 54.1 25.2417 53.55 25.675C53 26.1083 52.35 26.4417 51.6 26.675C50.8667 26.8917 50.0417 27 49.125 27H41.275ZM44.875 23.75H48.975C49.5083 23.75 49.9583 23.675 50.325 23.525C50.7083 23.3583 51 23.1083 51.2 22.775C51.4 22.4417 51.5 22.05 51.5 21.6C51.5 21.1667 51.3917 20.8 51.175 20.5C50.9583 20.2 50.65 19.975 50.25 19.825C49.8667 19.6583 49.4 19.575 48.85 19.575H44.875V23.75ZM44.875 16.6H48.425C48.875 16.6 49.2667 16.5167 49.6 16.35C49.9333 16.1833 50.1833 15.9583 50.35 15.675C50.5333 15.3917 50.625 15.0583 50.625 14.675C50.625 14.0583 50.425 13.5833 50.025 13.25C49.625 12.9167 49.025 12.75 48.225 12.75H44.875V16.6ZM62.6834 27.25C61.7167 27.25 60.8834 27.0417 60.1834 26.625C59.5001 26.1917 58.9667 25.5833 58.5834 24.8C58.2167 24 58.0334 23.0417 58.0334 21.925V13.775H61.5834V21.35C61.5834 21.95 61.6834 22.475 61.8834 22.925C62.0834 23.3583 62.3667 23.6917 62.7334 23.925C63.1001 24.1583 63.5501 24.275 64.0834 24.275C64.4667 24.275 64.8251 24.2167 65.1584 24.1C65.4917 23.9667 65.7751 23.7833 66.0084 23.55C66.2417 23.3167 66.4251 23.0417 66.5584 22.725C66.6917 22.4083 66.7584 22.0667 66.7584 21.7V13.775H70.3084V27H66.9334L66.8084 24.275L67.4584 23.975C67.2584 24.5917 66.9251 25.15 66.4584 25.65C65.9917 26.15 65.4334 26.5417 64.7834 26.825C64.1334 27.1083 63.4334 27.25 62.6834 27.25ZM79.0555 27.25C77.9055 27.25 76.8721 26.9583 75.9555 26.375C75.0388 25.775 74.3138 24.9667 73.7805 23.95C73.2638 22.9167 73.0055 21.725 73.0055 20.375C73.0055 19.0583 73.2638 17.8833 73.7805 16.85C74.3138 15.8167 75.0305 15 75.9305 14.4C76.8471 13.8 77.8888 13.5 79.0555 13.5C79.6721 13.5 80.2638 13.6 80.8305 13.8C81.4138 13.9833 81.9305 14.2417 82.3805 14.575C82.8471 14.9083 83.2221 15.2833 83.5055 15.7C83.7888 16.1 83.9471 16.525 83.9805 16.975L83.0805 17.125V8.5H86.6305V27H83.2805L83.1305 23.95L83.8305 24.025C83.7971 24.4417 83.6471 24.8417 83.3805 25.225C83.1138 25.6083 82.7555 25.9583 82.3055 26.275C81.8721 26.575 81.3721 26.8167 80.8055 27C80.2555 27.1667 79.6721 27.25 79.0555 27.25ZM79.8555 24.3C80.5221 24.3 81.1055 24.1333 81.6055 23.8C82.1055 23.4667 82.4971 23.0083 82.7805 22.425C83.0638 21.8417 83.2055 21.1583 83.2055 20.375C83.2055 19.6083 83.0638 18.9333 82.7805 18.35C82.4971 17.75 82.1055 17.2917 81.6055 16.975C81.1055 16.6417 80.5221 16.475 79.8555 16.475C79.1888 16.475 78.6055 16.6417 78.1055 16.975C77.6221 17.2917 77.2388 17.75 76.9555 18.35C76.6888 18.9333 76.5555 19.6083 76.5555 20.375C76.5555 21.1583 76.6888 21.8417 76.9555 22.425C77.2388 23.0083 77.6221 23.4667 78.1055 23.8C78.6055 24.1333 79.1888 24.3 79.8555 24.3ZM95.2664 27.25C94.1164 27.25 93.0831 26.9583 92.1664 26.375C91.2497 25.775 90.5247 24.9667 89.9914 23.95C89.4747 22.9167 89.2164 21.725 89.2164 20.375C89.2164 19.0583 89.4747 17.8833 89.9914 16.85C90.5247 15.8167 91.2414 15 92.1414 14.4C93.0581 13.8 94.0997 13.5 95.2664 13.5C95.8831 13.5 96.4747 13.6 97.0414 13.8C97.6247 13.9833 98.1414 14.2417 98.5914 14.575C99.0581 14.9083 99.4331 15.2833 99.7164 15.7C99.9997 16.1 100.158 16.525 100.191 16.975L99.2914 17.125V8.5H102.841V27H99.4914L99.3414 23.95L100.041 24.025C100.008 24.4417 99.8581 24.8417 99.5914 25.225C99.3247 25.6083 98.9664 25.9583 98.5164 26.275C98.0831 26.575 97.5831 26.8167 97.0164 27C96.4664 27.1667 95.8831 27.25 95.2664 27.25ZM96.0664 24.3C96.7331 24.3 97.3164 24.1333 97.8164 23.8C98.3164 23.4667 98.7081 23.0083 98.9914 22.425C99.2747 21.8417 99.4164 21.1583 99.4164 20.375C99.4164 19.6083 99.2747 18.9333 98.9914 18.35C98.7081 17.75 98.3164 17.2917 97.8164 16.975C97.3164 16.6417 96.7331 16.475 96.0664 16.475C95.3997 16.475 94.8164 16.6417 94.3164 16.975C93.8331 17.2917 93.4497 17.75 93.1664 18.35C92.8997 18.9333 92.7664 19.6083 92.7664 20.375C92.7664 21.1583 92.8997 21.8417 93.1664 22.425C93.4497 23.0083 93.8331 23.4667 94.3164 23.8C94.8164 24.1333 95.3997 24.3 96.0664 24.3ZM108.152 32.75L111.052 25.95L111.102 28L104.652 13.775H108.677L111.902 21.4C112.036 21.6833 112.161 22.0167 112.277 22.4C112.411 22.7667 112.519 23.125 112.602 23.475L112.002 23.725C112.102 23.4417 112.219 23.1167 112.352 22.75C112.486 22.3833 112.619 21.9917 112.752 21.575L115.527 13.775H119.577L114.027 27L111.752 32.75H108.152Z" fill="#3B3B45"/>
<defs>
<clipPath id="clip0_35_1230">
<rect width="31" height="36" fill="white"/>
</clipPath>
</defs>
</svg>
