<svg width="18" height="13" viewBox="0 0 18 13" fill="none" xmlns="http://www.w3.org/2000/svg">
<path d="M9.225 6.665C9.62518 6.3186 9.94616 5.89016 10.1662 5.40877C10.3861 4.92737 10.5 4.40428 10.5 3.875C10.5 2.88044 10.1049 1.92661 9.40165 1.22335C8.69839 0.520088 7.74456 0.125 6.75 0.125C5.75544 0.125 4.80161 0.520088 4.09835 1.22335C3.39509 1.92661 3 2.88044 3 3.875C2.99999 4.40428 3.11385 4.92737 3.33384 5.40877C3.55384 5.89016 3.87482 6.3186 4.275 6.665C3.22511 7.14041 2.33435 7.90815 1.70924 8.87641C1.08412 9.84467 0.751104 10.9725 0.75 12.125C0.75 12.3239 0.829018 12.5147 0.96967 12.6553C1.11032 12.796 1.30109 12.875 1.5 12.875C1.69891 12.875 1.88968 12.796 2.03033 12.6553C2.17098 12.5147 2.25 12.3239 2.25 12.125C2.25 10.9315 2.72411 9.78693 3.56802 8.94302C4.41193 8.09911 5.55653 7.625 6.75 7.625C7.94347 7.625 9.08807 8.09911 9.93198 8.94302C10.7759 9.78693 11.25 10.9315 11.25 12.125C11.25 12.3239 11.329 12.5147 11.4697 12.6553C11.6103 12.796 11.8011 12.875 12 12.875C12.1989 12.875 12.3897 12.796 12.5303 12.6553C12.671 12.5147 12.75 12.3239 12.75 12.125C12.7489 10.9725 12.4159 9.84467 11.7908 8.87641C11.1657 7.90815 10.2749 7.14041 9.225 6.665ZM6.75 6.125C6.30499 6.125 5.86998 5.99304 5.49997 5.74581C5.12996 5.49857 4.84157 5.14717 4.67127 4.73604C4.50097 4.3249 4.45642 3.8725 4.54323 3.43605C4.63005 2.99959 4.84434 2.59868 5.15901 2.28401C5.47368 1.96934 5.87459 1.75505 6.31105 1.66823C6.7475 1.58142 7.1999 1.62597 7.61104 1.79627C8.02217 1.96657 8.37357 2.25496 8.62081 2.62497C8.86804 2.99498 9 3.42999 9 3.875C9 4.47174 8.76295 5.04403 8.34099 5.46599C7.91903 5.88795 7.34674 6.125 6.75 6.125ZM14.055 6.365C14.535 5.8245 14.8485 5.15679 14.9579 4.44225C15.0672 3.72772 14.9677 2.99681 14.6713 2.3375C14.375 1.67819 13.8943 1.1186 13.2874 0.726067C12.6804 0.333538 11.9729 0.124807 11.25 0.125C11.0511 0.125 10.8603 0.204018 10.7197 0.34467C10.579 0.485322 10.5 0.676088 10.5 0.875C10.5 1.07391 10.579 1.26468 10.7197 1.40533C10.8603 1.54598 11.0511 1.625 11.25 1.625C11.8467 1.625 12.419 1.86205 12.841 2.28401C13.2629 2.70597 13.5 3.27826 13.5 3.875C13.4989 4.26893 13.3945 4.65568 13.197 4.99657C12.9996 5.33745 12.7162 5.62054 12.375 5.8175C12.2638 5.88164 12.1709 5.97325 12.1053 6.08356C12.0396 6.19386 12.0034 6.31918 12 6.4475C11.9969 6.57482 12.0262 6.70085 12.0852 6.81369C12.1443 6.92654 12.2311 7.02249 12.3375 7.0925L12.63 7.2875L12.7275 7.34C13.6315 7.76879 14.3942 8.44699 14.9257 9.29474C15.4572 10.1425 15.7354 11.1245 15.7275 12.125C15.7275 12.3239 15.8065 12.5147 15.9472 12.6553C16.0878 12.796 16.2786 12.875 16.4775 12.875C16.6764 12.875 16.8672 12.796 17.0078 12.6553C17.1485 12.5147 17.2275 12.3239 17.2275 12.125C17.2336 10.9741 16.9454 9.84069 16.3901 8.83255C15.8348 7.8244 15.031 6.97498 14.055 6.365Z" fill="#818187"/>
</svg>
