<svg width="16" height="17" viewBox="0 0 16 17" fill="none" xmlns="http://www.w3.org/2000/svg">
<path d="M10.7826 9.0325C11.5179 8.454 12.0546 7.66069 12.318 6.76296C12.5815 5.86522 12.5586 4.9077 12.2525 4.0236C11.9464 3.1395 11.3723 2.3728 10.6102 1.83014C9.84803 1.28749 8.93571 0.99588 8.00012 0.99588C7.06453 0.99588 6.1522 1.28749 5.39007 1.83014C4.62793 2.3728 4.05388 3.1395 3.74778 4.0236C3.44168 4.9077 3.41875 5.86522 3.68219 6.76296C3.94563 7.66069 4.48233 8.454 5.21762 9.0325C3.95768 9.53728 2.85834 10.3745 2.03679 11.4549C1.21524 12.5354 0.702292 13.8185 0.55262 15.1675C0.541786 15.266 0.550457 15.3657 0.578139 15.4608C0.60582 15.5559 0.65197 15.6447 0.713953 15.722C0.839134 15.8781 1.02121 15.9781 1.22012 16C1.41903 16.0219 1.61849 15.9638 1.77461 15.8387C1.93074 15.7135 2.03074 15.5314 2.05262 15.3325C2.21731 13.8664 2.91638 12.5124 4.01628 11.5291C5.11618 10.5458 6.53979 10.0023 8.01512 10.0023C9.49045 10.0023 10.9141 10.5458 12.014 11.5291C13.1139 12.5124 13.8129 13.8664 13.9776 15.3325C13.998 15.5168 14.0859 15.687 14.2244 15.8103C14.363 15.9335 14.5422 16.0011 14.7276 16H14.8101C15.0067 15.9774 15.1864 15.878 15.31 15.7234C15.4337 15.5689 15.4912 15.3718 15.4701 15.175C15.3197 13.8222 14.804 12.5357 13.9783 11.4537C13.1525 10.3716 12.0478 9.53461 10.7826 9.0325ZM8.00012 8.5C7.40678 8.5 6.82676 8.32405 6.33341 7.99441C5.84006 7.66477 5.45554 7.19623 5.22848 6.64805C5.00142 6.09987 4.94201 5.49667 5.05776 4.91473C5.17352 4.33279 5.45924 3.79824 5.8788 3.37868C6.29836 2.95912 6.83291 2.6734 7.41485 2.55765C7.99679 2.44189 8.59999 2.5013 9.14817 2.72836C9.69635 2.95543 10.1649 3.33994 10.4945 3.83329C10.8242 4.32664 11.0001 4.90666 11.0001 5.5C11.0001 6.29565 10.684 7.05871 10.1214 7.62132C9.55883 8.18393 8.79577 8.5 8.00012 8.5Z" fill="#FF8600"/>
</svg>
