<svg width="18" height="17" viewBox="0 0 18 17" fill="none" xmlns="http://www.w3.org/2000/svg">
<path d="M8.25 6.25H11.25C11.4489 6.25 11.6397 6.17098 11.7803 6.03033C11.921 5.88968 12 5.69891 12 5.5C12 5.30109 11.921 5.11032 11.7803 4.96967C11.6397 4.82902 11.4489 4.75 11.25 4.75H9.75V4C9.75 3.80109 9.67099 3.61032 9.53033 3.46967C9.38968 3.32902 9.19892 3.25 9 3.25C8.80109 3.25 8.61033 3.32902 8.46967 3.46967C8.32902 3.61032 8.25 3.80109 8.25 4V4.75C7.65327 4.75 7.08097 4.98705 6.65901 5.40901C6.23706 5.83097 6 6.40326 6 7C6 7.59674 6.23706 8.16903 6.65901 8.59099C7.08097 9.01295 7.65327 9.25 8.25 9.25H9.75C9.94892 9.25 10.1397 9.32902 10.2803 9.46967C10.421 9.61032 10.5 9.80109 10.5 10C10.5 10.1989 10.421 10.3897 10.2803 10.5303C10.1397 10.671 9.94892 10.75 9.75 10.75H6.75C6.55109 10.75 6.36033 10.829 6.21967 10.9697C6.07902 11.1103 6 11.3011 6 11.5C6 11.6989 6.07902 11.8897 6.21967 12.0303C6.36033 12.171 6.55109 12.25 6.75 12.25H8.25V13C8.25 13.1989 8.32902 13.3897 8.46967 13.5303C8.61033 13.671 8.80109 13.75 9 13.75C9.19892 13.75 9.38968 13.671 9.53033 13.5303C9.67099 13.3897 9.75 13.1989 9.75 13V12.25C10.3467 12.25 10.919 12.0129 11.341 11.591C11.763 11.169 12 10.5967 12 10C12 9.40326 11.763 8.83097 11.341 8.40901C10.919 7.98705 10.3467 7.75 9.75 7.75H8.25C8.05109 7.75 7.86033 7.67098 7.71967 7.53033C7.57902 7.38968 7.5 7.19891 7.5 7C7.5 6.80109 7.57902 6.61032 7.71967 6.46967C7.86033 6.32902 8.05109 6.25 8.25 6.25ZM9 0.25C7.36831 0.25 5.77325 0.733854 4.41655 1.64038C3.05984 2.5469 2.00242 3.83537 1.378 5.34286C0.753575 6.85035 0.590197 8.50915 0.908525 10.1095C1.22685 11.7098 2.01259 13.1798 3.16637 14.3336C4.32016 15.4874 5.79017 16.2732 7.39051 16.5915C8.99085 16.9098 10.6497 16.7464 12.1571 16.122C13.6646 15.4976 14.9531 14.4402 15.8596 13.0835C16.7661 11.7268 17.25 10.1317 17.25 8.5C17.25 6.31196 16.3808 4.21354 14.8336 2.66637C13.2865 1.11919 11.188 0.25 9 0.25ZM9 15.25C7.66498 15.25 6.35994 14.8541 5.2499 14.1124C4.13987 13.3707 3.27471 12.3165 2.76382 11.0831C2.25293 9.84971 2.11925 8.49251 2.3797 7.18314C2.64015 5.87377 3.28303 4.67103 4.22703 3.72703C5.17104 2.78302 6.37377 2.14015 7.68314 1.8797C8.99252 1.61925 10.3497 1.75292 11.5831 2.26381C12.8165 2.7747 13.8707 3.63987 14.6124 4.7499C15.3541 5.85993 15.75 7.16498 15.75 8.5C15.75 10.2902 15.0388 12.0071 13.773 13.273C12.5071 14.5388 10.7902 15.25 9 15.25Z" fill="#818187"/>
</svg>
