<svg width="16" height="15" viewBox="0 0 16 15" fill="none" xmlns="http://www.w3.org/2000/svg">
<path d="M14.99 5.6625L13.5725 5.19L14.24 3.855C14.3077 3.71527 14.3303 3.55798 14.3048 3.40483C14.2793 3.25169 14.2068 3.11024 14.0975 3L12.5 1.4025C12.3892 1.29157 12.2464 1.21816 12.0917 1.1926C11.937 1.16704 11.7781 1.19061 11.6375 1.26L10.3025 1.9275L9.83 0.510003C9.7801 0.362247 9.68538 0.233722 9.55902 0.142314C9.43266 0.0509053 9.28095 0.00116075 9.125 2.50015e-06H6.875C6.71777 -0.000403371 6.56439 0.0486167 6.43653 0.140134C6.30868 0.231651 6.21282 0.361037 6.1625 0.510003L5.69 1.9275L4.355 1.26C4.21527 1.19234 4.05798 1.16971 3.90483 1.19523C3.75169 1.22075 3.61024 1.29318 3.5 1.4025L1.9025 3C1.79157 3.11083 1.71816 3.25363 1.6926 3.40834C1.66704 3.56305 1.69061 3.72189 1.76 3.8625L2.4275 5.1975L1.01 5.67C0.862247 5.7199 0.733722 5.81462 0.642314 5.94098C0.550905 6.06734 0.501161 6.21905 0.500003 6.375V8.625C0.499597 8.78224 0.548617 8.93562 0.640134 9.06347C0.731651 9.19133 0.861037 9.28719 1.01 9.3375L2.4275 9.81L1.76 11.145C1.69234 11.2847 1.66971 11.442 1.69523 11.5952C1.72075 11.7483 1.79318 11.8898 1.9025 12L3.5 13.5975C3.61083 13.7084 3.75363 13.7818 3.90834 13.8074C4.06305 13.833 4.22189 13.8094 4.3625 13.74L5.6975 13.0725L6.17 14.49C6.22032 14.639 6.31618 14.7684 6.44403 14.8599C6.57189 14.9514 6.72527 15.0004 6.8825 15H9.1325C9.28973 15.0004 9.44312 14.9514 9.57097 14.8599C9.69883 14.7684 9.79469 14.639 9.845 14.49L10.3175 13.0725L11.6525 13.74C11.7913 13.806 11.9471 13.8277 12.0987 13.8022C12.2503 13.7767 12.3904 13.7052 12.5 13.5975L14.0975 12C14.2084 11.8892 14.2818 11.7464 14.3074 11.5917C14.333 11.437 14.3094 11.2781 14.24 11.1375L13.5725 9.8025L14.99 9.33C15.1378 9.2801 15.2663 9.18538 15.3577 9.05902C15.4491 8.93266 15.4988 8.78095 15.5 8.625V6.375C15.5004 6.21777 15.4514 6.06439 15.3599 5.93653C15.2684 5.80868 15.139 5.71282 14.99 5.6625ZM14 8.085L13.1 8.385C12.893 8.45213 12.7032 8.56348 12.5435 8.71133C12.3839 8.85917 12.2584 9.03997 12.1756 9.24119C12.0928 9.4424 12.0548 9.65921 12.0642 9.87658C12.0736 10.094 12.1302 10.3067 12.23 10.5L12.6575 11.355L11.8325 12.18L11 11.73C10.8077 11.6342 10.597 11.5808 10.3822 11.5735C10.1675 11.5662 9.95366 11.6051 9.75524 11.6875C9.55683 11.77 9.37845 11.8942 9.23219 12.0516C9.08593 12.2091 8.9752 12.3961 8.9075 12.6L8.6075 13.5H7.415L7.115 12.6C7.04787 12.393 6.93652 12.2032 6.78868 12.0435C6.64083 11.8839 6.46003 11.7584 6.25882 11.6756C6.0576 11.5928 5.84079 11.5548 5.62342 11.5642C5.40605 11.5736 5.19333 11.6302 5 11.73L4.145 12.1575L3.32 11.3325L3.77 10.5C3.86982 10.3067 3.92639 10.094 3.93579 9.87658C3.94518 9.65921 3.90718 9.4424 3.82441 9.24119C3.74164 9.03997 3.61609 8.85917 3.45646 8.71133C3.29684 8.56348 3.10696 8.45213 2.9 8.385L2 8.085V6.915L2.9 6.615C3.10696 6.54787 3.29684 6.43652 3.45646 6.28868C3.61609 6.14083 3.74164 5.96003 3.82441 5.75882C3.90718 5.5576 3.94518 5.34079 3.93579 5.12342C3.92639 4.90605 3.86982 4.69333 3.77 4.5L3.3425 3.6675L4.1675 2.8425L5 3.27C5.19333 3.36982 5.40605 3.42639 5.62342 3.43579C5.84079 3.44518 6.0576 3.40718 6.25882 3.32441C6.46003 3.24164 6.64083 3.11609 6.78868 2.95646C6.93652 2.79684 7.04787 2.60696 7.115 2.4L7.415 1.5H8.585L8.885 2.4C8.95213 2.60696 9.06348 2.79684 9.21133 2.95646C9.35917 3.11609 9.53997 3.24164 9.74119 3.32441C9.9424 3.40718 10.1592 3.44518 10.3766 3.43579C10.594 3.42639 10.8067 3.36982 11 3.27L11.855 2.8425L12.68 3.6675L12.23 4.5C12.1342 4.69234 12.0808 4.90301 12.0735 5.11777C12.0662 5.33253 12.1051 5.54635 12.1875 5.74476C12.27 5.94318 12.3942 6.12155 12.5516 6.26781C12.7091 6.41407 12.8961 6.5248 13.1 6.5925L14 6.8925V8.085ZM8 4.5C7.40666 4.5 6.82664 4.67595 6.33329 5.00559C5.83994 5.33524 5.45543 5.80377 5.22836 6.35195C5.0013 6.90013 4.94189 7.50333 5.05765 8.08527C5.1734 8.66722 5.45912 9.20177 5.87868 9.62132C6.29824 10.0409 6.83279 10.3266 7.41473 10.4424C7.99667 10.5581 8.59987 10.4987 9.14805 10.2716C9.69623 10.0446 10.1648 9.66006 10.4944 9.16671C10.8241 8.67336 11 8.09335 11 7.5C11 6.70435 10.6839 5.94129 10.1213 5.37868C9.55871 4.81607 8.79565 4.5 8 4.5ZM8 9C7.70333 9 7.41332 8.91203 7.16665 8.74721C6.91997 8.58238 6.72771 8.34812 6.61418 8.07403C6.50065 7.79994 6.47095 7.49834 6.52882 7.20737C6.5867 6.9164 6.72956 6.64912 6.93934 6.43934C7.14912 6.22956 7.4164 6.0867 7.70737 6.02882C7.99834 5.97095 8.29994 6.00065 8.57403 6.11418C8.84812 6.22771 9.08238 6.41997 9.24721 6.66665C9.41203 6.91332 9.5 7.20333 9.5 7.5C9.5 7.89783 9.34197 8.27936 9.06066 8.56066C8.77936 8.84197 8.39783 9 8 9Z" fill="#818187"/>
</svg>
